<svg width="240" height="64" viewBox="0 0 240 64" fill="none" xmlns="http://www.w3.org/2000/svg">
  <rect x="1" y="1" width="238" height="62" rx="14" fill="#0E1525" stroke="#1F2A44" stroke-width="2"/>
  <path d="M36 18H44V38C44 42.4183 47.5817 46 52 46H68V54H52C43.1634 54 36 46.8366 36 38V18Z" fill="#6EE7F9"/>
  <path d="M80 18H88V54H80V18Z" fill="#D6E4FF"/>
  <path d="M102 54V18H110V34.5L125.5 18H136.5L121.8 33.7L137.5 54H127.2L115.8 39L110 45V54H102Z" fill="#D6E4FF"/>
  <path d="M149 54V18H157V34.5L172.5 18H183.5L168.8 33.7L184.5 54H174.2L162.8 39L157 45V54H149Z" fill="#D6E4FF"/>
  <path d="M193 36C193 25.5066 201.507 17 212 17C222.493 17 231 25.5066 231 36C231 46.4934 222.493 55 212 55C201.507 55 193 46.4934 193 36ZM201 36C201 42.0751 205.925 47 212 47C218.075 47 223 42.0751 223 36C223 29.9249 218.075 25 212 25C205.925 25 201 29.9249 201 36Z" fill="#6EE7F9"/>
</svg>
